<svg xmlns="http://www.w3.org/2000/svg" width="600" height="266.689" viewBox="0 0 600 266.689"><path d="M309.192 173.869h13.803V161.67l-13.803 12.199zM202.84 141.746l-8.177-7.229H182.96v16.897h30.835l-.903-.79-10.053-8.878z" fill="#ae0a0c"/><path d="M216.935 154.189h-18.072l22.274 19.676h18.072l-19.676-17.372-2.598-2.304zm60.654-80.127l-2.259-1.92-3.389 2.87-9.036 7.612-3.388 2.869-25.594 21.596-23.178 19.563h9.646l3.344 4.766h12.83v-11.34h8.879v13.418h3.207v-6.709h15.023v6.71h4.653v-10.505l1.604-2.914v-10.64h1.762V88.904h.858v-7.477l1.695-1.13 1.671 1.107v7.5h.859v20.534h1.762v10.64l1.604 2.914v3.615h4.043l1.085-3.615h9.307l6.686 6.98 1.4 1.446h16.175l2.553 1.74 1.604.248v-5.15h14.864s4.992 3.207 7.296 6.257h4.067l-71.633-60.45z" fill="#0e51ae"/><path d="M178.148 154.193v-19.676H154.79v39.352h59.57l-22.274-19.676h-13.938zm217.7-.004v-19.676H353.74l-4.518 3.998-10.279 9.059-1.762 1.559-3.14 2.778-2.869 2.53-2.327 2.056-2.146 1.897v15.475h69.148v-15.452h-35.692l2.756-4.224h32.936z" fill="#20831b"/><path d="M271.941 196.798l3.389 3.004 25.91-22.906h-51.843l10.12 8.945 3.388 2.982 9.036 7.975zm77.28-62.285H201.439l4.518 3.998h10.776v6.032h-3.93l3.93 3.479 1.242 1.107 3.163 2.778h.09v-2.778h11.137v2.778h-11.137v.068l5.083 4.518h6.054v5.331l3.93 3.479h.565v-8.81h11.68v17.372h6.573v-17.372h15.88v17.372h6.574v-17.372h12.9v17.372h6.55v-17.372h14.593v8.81h2.756l1.717-1.514v-7.296h8.268l2.35-2.078 2.823-2.508 1.65-1.446v-1.332h1.513l5.195-4.586h-6.709v-6.032h13.532l1.58-1.4 2.938-2.598zm-116.857 10.03h-11.137v-6.032h11.137v6.032zm18.253 7.364h-13.758v-2.778h13.758v2.778zm0-7.364h-13.758v-6.032h13.758v6.032zm22.454 7.364h-17.959v-2.778h17.959v2.778zm0-7.364h-17.959v-6.032h17.959v6.032zm19.472 7.364h-14.977v-2.778h14.977v2.778zm0-7.364h-14.977v-6.032h14.977v6.032zm19.066 7.364h-14.593v-2.778h14.593v2.778zm0-7.364h-14.593v-6.032h14.593v6.032zm15.09 7.364h-10.617v-2.778H326.7v2.778zm0-7.364h-10.617v-6.032H326.7v6.032zM32.316 38.343c-.364 1.756-.948 3.094-1.756 4.013-.81.919-1.939 1.378-3.393 1.378h-11.54V10.298c0-.829.089-1.49.259-1.985.172-.494.399-.872.681-1.135s.622-.439 1.015-.53c.393-.09.803-.136 1.227-.136h2.603V3.241H0v3.271h2.605c.466 0 .89.045 1.273.136.384.091.715.278 1 .56.282.284.505.687.666 1.211.16.527.24 1.232.24 2.121v29.65c0 .889-.08 1.596-.24 2.12-.161.526-.384.928-.666 1.212a2.075 2.075 0 0 1-1 .56 5.55 5.55 0 0 1-1.273.136H0v3.301h36.345l.454-13.84h-3.483l-1 4.663zm28.47-20.776c1.433 0 2.543.176 3.33.53.788.353 1.183 1.004 1.183 1.953 0 .182-.018.404-.046.666-.031.262-.078.535-.137.818-.06.283-.126.56-.197.833-.07.273-.145.51-.227.712l-4.088 12.144-.304.803c-.141.374-.282.797-.424 1.272s-.273.97-.392 1.484c-.124.514-.203.984-.243 1.408a15.825 15.825 0 0 0-.18-1.288c-.085-.433-.19-.907-.32-1.422-.13-.516-.298-1.091-.501-1.727a39.4 39.4 0 0 0-.755-2.135c-.265-.727-.567-1.564-.909-2.514-.344-.948-.701-1.932-1.076-2.953a191.62 191.62 0 0 0-1.152-3.058 112.59 112.59 0 0 0-1.134-2.832 13.031 13.031 0 0 1-.395-1.167c-.14-.473-.211-.882-.211-1.226 0-.908.348-1.52 1.043-1.832.697-.313 1.652-.47 2.863-.47v-3.3H38.826v3.664c.466 0 .9.025 1.304.076s.777.166 1.12.348c.343.181.667.444.97.787.304.344.575.808.818 1.393L54.21 47.823a29.362 29.362 0 0 1-1.769 4.481c-.677 1.353-1.54 2.514-2.59 3.484-1.05.97-2.334 1.716-3.847 2.24-1.513.526-3.351.788-5.51.788v3.604h1.058c2.038 0 3.82-.09 5.345-.272 1.525-.182 2.862-.49 4.013-.925 1.152-.433 2.162-1.013 3.029-1.74.867-.727 1.661-1.646 2.378-2.757s1.397-2.423 2.045-3.936a106.166 106.166 0 0 0 2.058-5.27 645.49 645.49 0 0 1 2.319-6.285c.796-2.13 1.593-4.27 2.391-6.42.799-2.151 1.589-4.297 2.378-6.436.786-2.14 1.545-4.24 2.27-6.3.325-.868.647-1.59.969-2.165.324-.576.677-1.04 1.061-1.393a3.26 3.26 0 0 1 1.286-.742c.477-.142 1.026-.212 1.65-.212v-3.302h-13.96v3.302zm28.03 2.574c.516-1.05 1.129-1.792 1.848-2.227.715-.433 1.527-.65 2.435-.65.79 0 1.439.217 1.955.65.516.435.924 1.015 1.227 1.742.304.727.52 1.575.653 2.545.128.968.194 1.988.194 3.058 1.615 0 2.943-.15 3.984-.454 1.039-.304 1.857-.697 2.453-1.182.596-.484 1.01-1.044 1.24-1.68a5.614 5.614 0 0 0 .348-1.954c0-.908-.267-1.762-.8-2.559-.537-.798-1.317-1.49-2.348-2.075-1.03-.584-2.314-1.044-3.845-1.378-1.535-.333-3.302-.5-5.301-.5-2.142 0-4.14.289-5.998.863a11.628 11.628 0 0 0-4.83 2.894c-1.363 1.352-2.432 3.149-3.209 5.39-.779 2.241-1.167 5.038-1.167 8.39 0 3.17.373 5.845 1.12 8.025s1.799 3.948 3.149 5.3c1.354 1.354 2.973 2.322 4.862 2.908s3.973.878 6.254.878c2.1 0 3.907-.208 5.42-.621 1.516-.414 2.762-.949 3.742-1.605s1.7-1.388 2.166-2.196c.463-.808.697-1.605.697-2.393a3.76 3.76 0 0 0-.366-1.62 2.77 2.77 0 0 0-1.12-1.227 8.712 8.712 0 0 1-1.408 1.985 9.035 9.035 0 0 1-2.012 1.605c-.768.454-1.622.807-2.56 1.06-.939.252-1.945.378-3.013.378-2.607 0-4.482-1.039-5.634-3.12-1.151-2.078-1.727-5.219-1.727-9.418 0-2.645.137-4.846.408-6.603.273-1.756.666-3.159 1.182-4.209zm47.533-2.878c-1.25-1.252-2.777-2.196-4.573-2.831-1.798-.637-3.817-.954-6.058-.954-2.444 0-4.62.368-6.525 1.105-1.91.737-3.521 1.843-4.832 3.317-1.312 1.473-2.312 3.311-3 5.512-.684 2.2-1.028 4.755-1.028 7.662 0 2.706.344 5.114 1.028 7.223.688 2.11 1.708 3.891 3.062 5.345 1.35 1.454 3.031 2.565 5.04 3.332 2.01.767 4.327 1.15 6.952 1.15 2.1 0 3.911-.181 5.436-.544 1.524-.364 2.793-.848 3.8-1.454s1.76-1.307 2.242-2.104.726-1.64.726-2.53c0-1.413-.556-2.423-1.663-3.029a9.474 9.474 0 0 1-1.38 1.985c-.555.615-1.201 1.15-1.938 1.605s-1.56.807-2.467 1.06c-.908.252-1.899.378-2.969.378-1.293 0-2.44-.232-3.437-.696-1.001-.464-1.849-1.181-2.546-2.15-.697-.97-1.24-2.201-1.634-3.696-.395-1.493-.62-3.28-.682-5.36h20.322v-3.18c0-2.464-.333-4.623-1-6.482-.666-1.856-1.625-3.412-2.876-4.664zm-16.325 10.358c.102-3.31.662-5.824 1.681-7.54 1.02-1.717 2.398-2.575 4.134-2.575.89 0 1.64.232 2.257.696.616.466 1.12 1.132 1.514 1.999.392.869.681 1.929.864 3.18.181 1.253.272 2.666.272 4.24h-10.722zm9.162-19.792c1.182-.837 2.32-1.7 3.424-2.59a61.406 61.406 0 0 0 2.982-2.559c.887-.817 1.522-1.499 1.906-2.044V0h-9.75c-.322.687-.733 1.44-1.227 2.257a46.651 46.651 0 0 1-1.59 2.453 127.89 127.89 0 0 1-1.681 2.377c-.554.768-1.055 1.444-1.498 2.03v.817h4.209a43.46 43.46 0 0 0 3.225-2.105zm42.568 9.434c-1.253-1.252-2.775-2.196-4.573-2.831-1.798-.637-3.817-.954-6.058-.954-2.442 0-4.617.368-6.528 1.105-1.906.737-3.516 1.843-4.829 3.317-1.312 1.473-2.312 3.311-2.998 5.512-.688 2.2-1.03 4.755-1.03 7.662 0 2.706.342 5.114 1.03 7.223.686 2.11 1.705 3.891 3.058 5.345 1.354 1.454 3.035 2.565 5.043 3.332 2.01.767 4.326 1.15 6.951 1.15 2.098 0 3.911-.181 5.436-.544 1.524-.364 2.79-.848 3.8-1.454 1.011-.605 1.757-1.307 2.242-2.104.485-.798.728-1.64.728-2.53 0-1.413-.556-2.423-1.668-3.029-.362.708-.82 1.37-1.376 1.985s-1.203 1.15-1.94 1.605-1.56.807-2.468 1.06c-.909.252-1.897.378-2.967.378-1.293 0-2.438-.232-3.44-.696-.996-.464-1.846-1.181-2.54-2.15-.698-.97-1.245-2.201-1.638-3.696-.392-1.493-.622-3.28-.681-5.36h20.322v-3.18c0-2.464-.333-4.623-1-6.482-.666-1.856-1.623-3.412-2.876-4.664zm-16.325 10.358c.102-3.31.662-5.824 1.681-7.54 1.02-1.717 2.398-2.575 4.134-2.575.887 0 1.642.232 2.257.696.615.466 1.12 1.132 1.516 1.999.392.869.679 1.929.86 3.18.183 1.253.273 2.666.273 4.24h-10.72zm62.056 16.597h-2.665c-.423 0-.83-.04-1.21-.121a2.231 2.231 0 0 1-1.016-.5c-.293-.252-.525-.625-.695-1.12-.172-.495-.26-1.146-.26-1.954V28.288h4.121l7.36 13.659c.644 1.15 1.345 2.089 2.104 2.816a8.228 8.228 0 0 0 2.696 1.712c1.039.413 2.25.691 3.633.833s3.002.211 4.86.211h2.03v-3.301h-.243a4.803 4.803 0 0 1-1.663-.288 5.124 5.124 0 0 1-1.531-.908c-.495-.413-.989-.94-1.483-1.575a21.68 21.68 0 0 1-1.53-2.286l-7.391-12.72c1.05-.425 2.08-.964 3.09-1.62a12.319 12.319 0 0 0 2.712-2.409c.796-.948 1.438-2.059 1.923-3.33.484-1.274.726-2.727.726-4.362 0-3.736-1.37-6.583-4.105-8.54-2.736-1.96-7.03-2.94-12.886-2.94h-19.989v3.272h2.603c.426 0 .83.045 1.214.136.384.091.721.268 1.014.53.292.263.526.641.698 1.135.17.496.255 1.156.255 1.985v30.225c0 .808-.086 1.46-.255 1.953-.172.496-.406.87-.698 1.121-.293.253-.63.42-1.014.5a5.818 5.818 0 0 1-1.214.121h-2.603v3.301h21.412v-3.301zM211.64 6.906h3.362c1.374 0 2.546.157 3.514.469.969.313 1.759.818 2.363 1.514.604.697 1.05 1.59 1.332 2.68.283 1.091.424 2.424.424 3.998 0 1.514-.126 2.842-.38 3.983-.25 1.14-.666 2.09-1.24 2.847-.575.758-1.343 1.328-2.302 1.71-.958.385-2.156.576-3.587.576h-3.486V6.906zm33.558 36.736c1.353 1.454 3.034 2.565 5.043 3.332 2.008.767 4.324 1.15 6.95 1.15 2.1 0 3.913-.181 5.435-.544 1.527-.364 2.793-.848 3.803-1.454 1.009-.605 1.756-1.307 2.242-2.104.483-.798.726-1.64.726-2.53 0-1.413-.556-2.423-1.666-3.029a9.38 9.38 0 0 1-1.377 1.985c-.556.615-1.204 1.15-1.94 1.605s-1.558.807-2.467 1.06c-.91.252-1.897.378-2.97.378-1.292 0-2.437-.232-3.437-.696-.999-.464-1.848-1.181-2.543-2.15-.697-.97-1.242-2.201-1.635-3.696-.395-1.493-.622-3.28-.684-5.36H271v-3.18c0-2.464-.33-4.623-.997-6.482-.666-1.856-1.626-3.412-2.876-4.664-1.254-1.252-2.778-2.196-4.576-2.831-1.796-.637-3.816-.954-6.058-.954-2.442 0-4.617.368-6.525 1.105-1.908.737-3.519 1.843-4.831 3.317-1.31 1.473-2.312 3.311-2.998 5.512-.686 2.2-1.03 4.755-1.03 7.662 0 2.706.344 5.114 1.03 7.223.686 2.11 1.705 3.891 3.06 5.345zm7.285-23.561c1.019-1.717 2.396-2.575 4.134-2.575.887 0 1.639.232 2.255.696.617.466 1.12 1.132 1.515 1.999.393.869.682 1.929.863 3.18.18 1.253.273 2.666.273 4.24h-10.721c.101-3.31.662-5.824 1.68-7.54zm41.416 24.137h-.18c-.69 0-1.311-.045-1.865-.136-.556-.091-1.026-.283-1.41-.575s-.68-.702-.89-1.227c-.213-.525-.319-1.221-.319-2.09V28.348c0-1.272.089-2.488.272-3.65.183-1.16.479-2.18.893-3.058.415-.879.964-1.58 1.65-2.105.689-.524 1.545-.788 2.575-.788.909 0 1.68.187 2.318.56.636.374 1.15.915 1.545 1.62.392.708.675 1.581.847 2.62.172 1.04.256 2.227.256 3.56v20.412h13.78v-3.301h-.18a9.87 9.87 0 0 1-1.849-.151c-.525-.102-.957-.303-1.301-.606s-.6-.742-.772-1.318c-.172-.575-.256-1.348-.256-2.316V25.44c0-2.1-.234-3.902-.697-5.407-.468-1.503-1.139-2.74-2.017-3.71a7.95 7.95 0 0 0-3.225-2.15c-1.27-.463-2.705-.696-4.3-.696-.97 0-1.892.05-2.77.15a8.119 8.119 0 0 0-2.498.698c-.79.363-1.53.888-2.228 1.574-.697.687-1.359 1.616-1.983 2.787h-.302l-.819-4.422h-13.022v3.302h.181c.686 0 1.302.045 1.849.135a3.22 3.22 0 0 1 1.407.576c.393.292.697.702.909 1.227.212.525.318 1.222.318 2.089v18.354c0 .929-.122 1.676-.364 2.24-.24.566-.58 1-1.015 1.303-.435.303-.942.5-1.529.591-.587.09-1.23.136-1.937.136h-.123v3.301h19.051v-3.301zm42.84-36.389c1.18-.837 2.32-1.7 3.42-2.59 1.102-.888 2.097-1.74 2.986-2.559.886-.817 1.524-1.499 1.908-2.044V0h-9.753c-.324.687-.733 1.44-1.227 2.257s-1.025 1.636-1.59 2.453c-.565.817-1.125 1.61-1.681 2.377-.556.768-1.055 1.444-1.498 2.03v.817h4.209a43.46 43.46 0 0 0 3.225-2.105zm-14.766 35.813c1.353 1.454 3.034 2.565 5.043 3.332 2.01.767 4.326 1.15 6.951 1.15 2.1 0 3.912-.181 5.436-.544 1.525-.364 2.79-.848 3.801-1.454 1.01-.605 1.756-1.307 2.242-2.104s.728-1.64.728-2.53c0-1.413-.556-2.423-1.668-3.029a9.302 9.302 0 0 1-1.377 1.985c-.556.615-1.202 1.15-1.939 1.605s-1.56.807-2.469 1.06c-.908.252-1.897.378-2.967.378-1.292 0-2.437-.232-3.437-.696-.999-.464-1.848-1.181-2.545-2.15-.695-.97-1.24-2.201-1.635-3.696-.393-1.493-.62-3.28-.682-5.36h20.322v-3.18c0-2.464-.333-4.623-.999-6.482-.666-1.856-1.626-3.412-2.877-4.664-1.253-1.252-2.777-2.196-4.573-2.831-1.798-.637-3.816-.954-6.058-.954-2.442 0-4.617.368-6.525 1.105-1.908.737-3.519 1.843-4.831 3.317-1.313 1.473-2.312 3.311-2.998 5.512-.689 2.2-1.03 4.755-1.03 7.662 0 2.706.341 5.114 1.03 7.223.686 2.11 1.705 3.891 3.057 5.345zm7.285-23.561c1.019-1.717 2.398-2.575 4.134-2.575.889 0 1.641.232 2.256.696.616.466 1.121 1.132 1.514 1.999.395.869.681 1.929.865 3.18.18 1.253.27 2.666.27 4.24h-10.72c.101-3.31.661-5.824 1.68-7.54zm53.392-8.633c.819-1.595 1.904-2.806 3.257-3.634 1.352-.827 3.009-1.241 4.968-1.241 1.29 0 2.371.257 3.24.772a6.3 6.3 0 0 1 2.105 2.014 8.355 8.355 0 0 1 1.136 2.77c.22 1.021.333 2.045.333 3.075 1.25 0 2.36-.137 3.331-.41.969-.272 1.78-.65 2.438-1.134.655-.486 1.151-1.056 1.485-1.712a4.644 4.644 0 0 0 .498-2.134c0-1.01-.293-1.954-.878-2.833-.587-.878-1.465-1.64-2.634-2.287-1.171-.645-2.64-1.154-4.408-1.528-1.767-.374-3.84-.56-6.223-.56-3.514 0-6.607.554-9.283 1.665s-4.906 2.665-6.693 4.663-3.135 4.393-4.044 7.179c-.909 2.786-1.363 5.855-1.363 9.207 0 3.412.446 6.522 1.332 9.328.89 2.806 2.222 5.209 4 7.207 1.776 2 4.006 3.544 6.693 4.634 2.685 1.091 5.824 1.636 9.418 1.636 2.645 0 4.866-.263 6.664-.788 1.796-.525 3.24-1.191 4.33-1.998 1.09-.808 1.867-1.691 2.332-2.65.464-.96.698-1.873.698-2.74a4.32 4.32 0 0 0-.29-1.546c-.191-.504-.45-.878-.772-1.12a22.433 22.433 0 0 1-1.83 2.09c-.698.706-1.512 1.343-2.44 1.908s-1.984 1.024-3.164 1.377c-1.182.354-2.53.53-4.044.53-2.3 0-4.244-.368-5.83-1.105-1.584-.737-2.872-1.848-3.86-3.332-.991-1.483-1.708-3.346-2.152-5.588s-.666-4.855-.666-7.843.181-5.649.545-7.98c.364-2.333.955-4.297 1.771-5.892zm69.462 32.558a3.677 3.677 0 0 1-1.257-.711c-.393-.333-.757-.788-1.09-1.364-.333-.575-.65-1.297-.953-2.165L435.848 3.241h-8.51L413.89 39.705c-.364.93-.723 1.687-1.076 2.272-.353.585-.726 1.045-1.12 1.378-.393.334-.817.56-1.271.681a5.812 5.812 0 0 1-1.5.182h-.757v3.301h16.141v-3.301h-2.603c-.364 0-.712-.05-1.045-.151a2.961 2.961 0 0 1-.894-.44 2.156 2.156 0 0 1-.635-.741c-.163-.304-.243-.657-.243-1.06 0-.505.086-1.096.256-1.772.172-.676.34-1.267.5-1.773l1.788-5.33h15.082l2.18 6.21c.121.343.243.746.364 1.21.121.465.18.95.18 1.455 0 .423-.079.787-.24 1.09-.163.303-.368.55-.622.742-.251.192-.54.333-.862.424-.324.09-.636.136-.94.136h-2.422v3.301h20.474v-3.301h-1.12c-.486 0-.951-.07-1.395-.212zm-29.378-14.84l3.667-10.479c.24-.726.498-1.484.772-2.272l.816-2.361c.274-.788.532-1.556.772-2.302.243-.747.455-1.434.638-2.06.16.727.348 1.49.56 2.287.212.797.432 1.6.666 2.408.232.807.464 1.6.695 2.377.234.777.46 1.52.682 2.226l3.271 10.176h-12.539zm62.407-2.165c-.96-1.04-2.186-2.014-3.68-2.923-1.495-.909-3.302-1.797-5.422-2.665-2.1-.848-3.81-1.64-5.134-2.378-1.32-.737-2.362-1.474-3.119-2.21-.757-.737-1.277-1.49-1.56-2.257a7.04 7.04 0 0 1-.423-2.454c0-.927.161-1.751.485-2.467a5.153 5.153 0 0 1 1.317-1.802 5.514 5.514 0 0 1 1.953-1.091 7.64 7.64 0 0 1 2.362-.363c1.192 0 2.206.282 3.045.848a6.904 6.904 0 0 1 2.045 2.134c.522.86.902 1.787 1.134 2.787.231 1 .348 1.933.348 2.801 1.273 0 2.387-.13 3.347-.393.96-.262 1.758-.626 2.393-1.09.636-.465 1.11-1.01 1.423-1.636.313-.625.47-1.302.47-2.028 0-1.01-.263-1.954-.788-2.833-.525-.878-1.328-1.64-2.409-2.287-1.078-.645-2.446-1.154-4.103-1.528-1.654-.374-3.624-.56-5.905-.56-2.18 0-4.2.292-6.058.877-1.858.586-3.461 1.423-4.814 2.514a11.743 11.743 0 0 0-3.18 3.937c-.769 1.535-1.152 3.252-1.152 5.149 0 1.514.198 2.907.59 4.18.396 1.27 1.046 2.452 1.955 3.543.907 1.09 2.105 2.105 3.587 3.043 1.485.939 3.307 1.853 5.467 2.741a88.844 88.844 0 0 1 4.56 2.044c1.301.637 2.38 1.303 3.24 2 .856.696 1.498 1.454 1.922 2.271.426.817.637 1.752.637 2.802 0 .948-.172 1.832-.516 2.65a5.962 5.962 0 0 1-1.513 2.135c-.666.605-1.474 1.08-2.422 1.424-.951.343-2.03.514-3.241.514-1.233 0-2.37-.227-3.408-.68a7.206 7.206 0 0 1-2.68-2.03c-.748-.898-1.333-2.019-1.757-3.362-.423-1.343-.635-2.902-.635-4.68-.909 0-1.782.102-2.62.304a6.443 6.443 0 0 0-2.242 1 5.196 5.196 0 0 0-1.575 1.786c-.393.727-.591 1.625-.591 2.695 0 1.01.238 2.03.712 3.06.474 1.029 1.273 1.957 2.394 2.786 1.12.827 2.607 1.503 4.467 2.028 1.857.525 4.178.788 6.964.788 2.586 0 4.911-.333 6.982-1 2.07-.666 3.841-1.594 5.315-2.786 1.473-1.191 2.605-2.62 3.393-4.285.787-1.666 1.18-3.499 1.18-5.497 0-1.515-.216-2.893-.65-4.135-.435-1.24-1.132-2.381-2.09-3.421zm36.342 0c-.96-1.04-2.186-2.014-3.68-2.923-1.495-.909-3.302-1.797-5.422-2.665-2.1-.848-3.81-1.64-5.133-2.378-1.322-.737-2.363-1.474-3.12-2.21-.756-.737-1.277-1.49-1.56-2.257a7.04 7.04 0 0 1-.423-2.454c0-.927.161-1.751.486-2.467a5.153 5.153 0 0 1 1.317-1.802 5.514 5.514 0 0 1 1.952-1.091 7.64 7.64 0 0 1 2.363-.363c1.19 0 2.206.282 3.044.848a6.903 6.903 0 0 1 2.045 2.134 9.41 9.41 0 0 1 1.134 2.787c.232 1 .348 1.933.348 2.801 1.273 0 2.387-.13 3.347-.393.96-.262 1.758-.626 2.394-1.09.635-.465 1.11-1.01 1.422-1.636.314-.625.47-1.302.47-2.028 0-1.01-.262-1.954-.787-2.833-.525-.878-1.328-1.64-2.41-2.287-1.078-.645-2.446-1.154-4.102-1.528-1.655-.374-3.625-.56-5.906-.56-2.18 0-4.2.292-6.058.877-1.857.586-3.461 1.423-4.813 2.514a11.743 11.743 0 0 0-3.182 3.937c-.767 1.535-1.151 3.252-1.151 5.149 0 1.514.198 2.907.591 4.18.395 1.27 1.046 2.452 1.955 3.543.906 1.09 2.104 2.105 3.587 3.043 1.484.939 3.307 1.853 5.466 2.741a88.844 88.844 0 0 1 4.56 2.044c1.302.637 2.38 1.303 3.24 2 .857.696 1.499 1.454 1.922 2.271.426.817.638 1.752.638 2.802a6.76 6.76 0 0 1-.516 2.65 5.964 5.964 0 0 1-1.514 2.135c-.666.605-1.473 1.08-2.422 1.424-.95.343-2.03.514-3.24.514-1.234 0-2.37-.227-3.409-.68a7.206 7.206 0 0 1-2.68-2.03c-.748-.898-1.333-2.019-1.756-3.362-.424-1.343-.636-2.902-.636-4.68-.909 0-1.782.102-2.62.304s-1.587.535-2.242 1a5.196 5.196 0 0 0-1.575 1.786c-.393.727-.591 1.625-.591 2.695 0 1.01.238 2.03.712 3.06.475 1.029 1.273 1.957 2.394 2.786 1.12.827 2.608 1.503 4.467 2.028 1.858.525 4.178.788 6.965.788 2.585 0 4.91-.333 6.982-1 2.07-.666 3.84-1.594 5.314-2.786 1.474-1.191 2.606-2.62 3.393-4.285.788-1.666 1.18-3.499 1.18-5.497 0-1.515-.216-2.893-.65-4.135-.435-1.24-1.132-2.381-2.09-3.421zm7.558-20.459h2.603c.466 0 .89.045 1.273.137.384.09.717.278 1 .56.282.283.505.686.666 1.211.161.525.243 1.232.243 2.12v29.62c0 .889-.082 1.596-.243 2.12-.161.526-.384.928-.666 1.212a2.065 2.065 0 0 1-1 .56c-.383.09-.807.136-1.273.136h-2.603v3.301h21.412v-3.301h-2.605a5.62 5.62 0 0 1-1.258-.136 2.074 2.074 0 0 1-1.014-.56c-.283-.284-.503-.686-.667-1.212-.16-.524-.24-1.231-.24-2.12V10.57c0-.888.08-1.595.24-2.12.164-.525.384-.928.667-1.21.282-.283.622-.47 1.014-.561a5.555 5.555 0 0 1 1.258-.137h2.605V3.241H529.04v3.301zm54.757-3.301v3.271h2.603c.426 0 .83.045 1.213.136.382.091.721.268 1.013.53.293.263.525.641.697 1.135.172.496.258 1.156.258 1.985v23.896L567.684 3.24h-13.78v3.271h2.604c.423 0 .827.045 1.21.136.385.091.722.268 1.016.53.293.263.525.641.697 1.135.172.496.258 1.156.258 1.985V40.19c0 .889-.082 1.596-.243 2.12-.16.526-.388.928-.681 1.212-.294.282-.631.469-1.015.56-.384.09-.799.136-1.242.136h-2.603v3.301h16.2v-3.301h-2.602c-.424 0-.834-.045-1.227-.136a2.064 2.064 0 0 1-1.015-.56c-.282-.284-.51-.686-.681-1.212-.172-.524-.258-1.231-.258-2.12V13.356L588.52 47.52h5.724V10.54c0-.889.082-1.594.243-2.12.161-.525.388-.928.682-1.212.291-.282.63-.469 1.015-.56.383-.09.787-.136 1.21-.136H600V3.241h-16.203zM203.772 242.416a8.401 8.401 0 0 0-2.162-1.65c-.836-.45-1.76-.802-2.775-1.06v-.213c.83-.257 1.582-.57 2.26-.942a6.852 6.852 0 0 0 1.746-1.34 5.41 5.41 0 0 0 1.123-1.862c.265-.72.397-1.567.397-2.537 0-2.741-1.05-4.754-3.148-6.04-2.1-1.284-5.232-1.926-9.402-1.926h-12.804v2.313h1.798c.316 0 .611.038.89.117.277.079.52.218.727.418.208.2.37.482.494.846.12.364.181.838.181 1.424v21.007c0 .628-.061 1.127-.18 1.499-.124.371-.283.656-.484.856-.2.2-.439.332-.717.397a4.066 4.066 0 0 1-.91.096h-1.799v2.334h14.132c4.17 0 7.302-.71 9.402-2.131 2.098-1.42 3.146-3.572 3.146-6.456 0-1.071-.167-2.034-.503-2.891a7.032 7.032 0 0 0-1.412-2.26zm-13.759-14.893h1.586c.984 0 1.818.089 2.504.267.686.178 1.242.475 1.67.889.428.414.74.956.931 1.628.194.67.291 1.505.291 2.505 0 .999-.086 1.856-.258 2.57-.17.713-.46 1.295-.867 1.745-.406.45-.948.78-1.628.996-.677.214-1.53.32-2.559.32h-1.67v-10.92zm7.997 22.72c-.19.77-.503 1.395-.93 1.873-.429.478-.985.825-1.669 1.039-.688.214-1.513.32-2.484.32h-2.914V241.12h2.998c1.015 0 1.858.129 2.528.386s1.214.642 1.628 1.156c.413.514.706 1.167.876 1.96.172.792.258 1.723.258 2.794 0 1.114-.097 2.056-.29 2.827zm32.69 3.426a1.643 1.643 0 0 1-.815-.503c-.2-.236-.346-.554-.439-.953-.092-.4-.139-.9-.139-1.5v-11.177c0-1.371-.192-2.53-.578-3.48-.386-.949-.96-1.717-1.723-2.302-.763-.585-1.72-1.01-2.87-1.274-1.149-.264-2.495-.396-4.037-.396-1.242 0-2.409.081-3.5.246-1.093.164-2.048.424-2.869.782-.822.356-1.473.82-1.95 1.392-.478.57-.717 1.256-.717 2.055 0 1.07.497 1.827 1.49 2.27.99.443 2.47.664 4.442.664 0-.685.044-1.317.137-1.895.095-.578.256-1.078.483-1.5.227-.42.532-.75.911-.984.378-.236.845-.353 1.403-.353.6 0 1.081.121 1.443.364.366.242.64.584.825 1.027.186.443.31.971.366 1.585.056.614.084 1.285.084 2.013v2.42l-3.596.128c-3.284.1-5.744.721-7.377 1.863-1.636 1.142-2.453 2.905-2.453 5.289 0 1.214.179 2.266.534 3.159.358.892.847 1.634 1.47 2.227a5.863 5.863 0 0 0 2.183 1.317 8.312 8.312 0 0 0 2.71.428c.827 0 1.544-.068 2.15-.203a5.634 5.634 0 0 0 1.64-.632 6.648 6.648 0 0 0 1.37-1.081 24.81 24.81 0 0 0 1.37-1.531h.385l.92 3.019h8.158v-2.334h-.17c-.485 0-.898-.05-1.242-.15zm-8.053-5.89c0 .858-.097 1.632-.289 2.325s-.47 1.28-.836 1.766c-.362.485-.798.86-1.306 1.124a3.608 3.608 0 0 1-1.7.397c-.859 0-1.485-.315-1.887-.943-.397-.628-.598-1.57-.598-2.826 0-.8.078-1.5.236-2.1a3.7 3.7 0 0 1 .77-1.52c.355-.413.836-.738 1.436-.973.598-.236 1.333-.375 2.204-.418l1.97-.13v3.299zm25.526-12.804c1.013 0 1.798.124 2.356.374.556.25.837.71.837 1.382 0 .128-.014.285-.034.47-.022.186-.055.379-.097.579s-.09.396-.139.589c-.048.193-.103.36-.16.503l-2.89 8.587c-.042.114-.115.303-.215.567a16.089 16.089 0 0 0-.578 1.949 7.448 7.448 0 0 0-.172.996c-.028-.3-.07-.604-.128-.91-.057-.307-.132-.643-.225-1.007a23.627 23.627 0 0 0-.889-2.73l-.642-1.777c-.242-.671-.496-1.367-.76-2.088-.263-.722-.537-1.442-.815-2.163a73.766 73.766 0 0 0-.803-2.002 11.173 11.173 0 0 1-.278-.825 3.054 3.054 0 0 1-.15-.867c0-.642.247-1.075.74-1.295.491-.222 1.166-.332 2.022-.332v-2.334H232.65v2.59c.327 0 .636.018.92.054.285.036.55.118.792.246.243.129.472.314.684.557.216.242.408.571.58.985l7.9 19.294a20.57 20.57 0 0 1-1.25 3.169 8.496 8.496 0 0 1-1.832 2.463c-.743.685-1.647 1.213-2.72 1.585-1.072.37-2.369.556-3.896.556v2.549h.748c1.44 0 2.703-.065 3.78-.193 1.078-.13 2.024-.347 2.836-.653a7.319 7.319 0 0 0 2.142-1.232c.616-.513 1.176-1.164 1.681-1.948.508-.786.99-1.713 1.445-2.784a70.712 70.712 0 0 0 1.456-3.726c.53-1.456 1.077-2.938 1.64-4.443.562-1.507 1.127-3.02 1.691-4.54.565-1.52 1.125-3.038 1.681-4.551a360.505 360.505 0 0 0 1.606-4.454c.23-.614.457-1.124.684-1.531.23-.407.481-.735.75-.985.272-.25.574-.425.911-.524.336-.1.724-.15 1.167-.15v-2.334h-9.872v2.334zm31.662.128c-.978-1.014-2.165-1.77-3.554-2.27-1.395-.5-2.968-.75-4.724-.75-3.77 0-6.62 1.007-8.555 3.02-1.934 2.013-2.9 5.082-2.9 9.208 0 2.056.26 3.855.78 5.396.521 1.542 1.271 2.82 2.25 3.834.976 1.013 2.167 1.773 3.566 2.28 1.398.506 2.975.76 4.732.76 3.752 0 6.598-1.014 8.532-3.04 1.935-2.028 2.901-5.104 2.901-9.23 0-2.056-.26-3.851-.78-5.385-.521-1.536-1.271-2.81-2.248-3.823zm-3.996 13.32c-.156 1.184-.417 2.176-.78 2.976-.365.8-.834 1.403-1.412 1.81-.578.406-1.289.61-2.131.61s-1.558-.204-2.143-.61c-.584-.407-1.06-1.01-1.422-1.81-.367-.8-.631-1.792-.795-2.976-.163-1.186-.247-2.556-.247-4.112 0-1.57.08-2.944.239-4.122.154-1.178.412-2.159.77-2.944.355-.786.827-1.375 1.414-1.767.584-.393 1.297-.59 2.14-.59s1.557.197 2.141.59c.585.392 1.062.981 1.423 1.767.367.785.63 1.766.795 2.944.163 1.178.244 2.552.244 4.122 0 1.556-.077 2.926-.236 4.112zm35.763 5.289a1.905 1.905 0 0 1-.923-.428c-.242-.215-.423-.525-.544-.932-.122-.407-.184-.953-.184-1.638v-10.172c0-1.485-.163-2.76-.491-3.822-.33-1.064-.803-1.938-1.423-2.623a5.644 5.644 0 0 0-2.281-1.521c-.9-.328-1.913-.492-3.04-.492-.686 0-1.34.035-1.962.107a5.755 5.755 0 0 0-1.764.492 5.56 5.56 0 0 0-1.575 1.114c-.495.485-.962 1.142-1.404 1.97h-.214l-.577-3.126h-9.209v2.334h.13c.484 0 .918.032 1.307.096.383.064.714.2.995.407.277.207.491.496.642.867.15.371.225.863.225 1.478V250.8c0 .656-.087 1.184-.256 1.584-.172.4-.41.707-.72.92a2.548 2.548 0 0 1-1.08.419c-.415.064-.87.096-1.37.096h-.087v2.334h13.47v-2.334h-.127a8.26 8.26 0 0 1-1.32-.096 2.21 2.21 0 0 1-.994-.407 2.008 2.008 0 0 1-.634-.868c-.15-.371-.222-.864-.222-1.477v-8.373c0-.9.064-1.76.191-2.58.128-.821.34-1.542.631-2.163.294-.621.684-1.118 1.17-1.488.485-.372 1.09-.557 1.817-.557.645 0 1.192.132 1.64.396.45.264.814.646 1.091 1.146.28.5.48 1.117.6 1.852.122.735.184 1.574.184 2.516v14.433h9.742v-2.334h-.128c-.501 0-.936-.036-1.306-.107zm29.252 0a1.905 1.905 0 0 1-.922-.428c-.243-.215-.424-.525-.545-.932s-.183-.953-.183-1.638v-10.172c0-1.485-.164-2.76-.492-3.822-.329-1.064-.803-1.938-1.423-2.623a5.644 5.644 0 0 0-2.281-1.521c-.9-.328-1.913-.492-3.042-.492-.684 0-1.337.035-1.96.107a5.785 5.785 0 0 0-1.766.492 5.583 5.583 0 0 0-1.573 1.114c-.492.485-.96 1.142-1.403 1.97h-.214l-.578-3.126h-9.208v2.334h.128c.485 0 .922.032 1.306.096.386.064.719.2.997.407.278.207.492.496.642.867.15.371.225.863.225 1.478V250.8c0 .656-.086 1.184-.258 1.584-.17.4-.41.707-.717.92s-.667.354-1.081.419a9.018 9.018 0 0 1-1.37.096h-.086v2.334h13.47v-2.334h-.13c-.486 0-.925-.032-1.317-.096a2.21 2.21 0 0 1-.995-.407c-.272-.208-.481-.497-.631-.868-.15-.371-.225-.864-.225-1.477v-8.373c0-.9.064-1.76.192-2.58s.34-1.542.63-2.163c.294-.621.682-1.118 1.17-1.488.483-.372 1.092-.557 1.82-.557.642 0 1.187.132 1.637.396.45.264.814.646 1.092 1.146.278.5.478 1.117.6 1.852.121.735.183 1.574.183 2.516v14.433h9.742v-2.334h-.128c-.501 0-.936-.036-1.306-.107zm23.018-18.951c-.885-.886-1.964-1.553-3.234-2.003-1.271-.45-2.698-.674-4.282-.674-1.728 0-3.265.26-4.615.78-1.348.522-2.489 1.304-3.415 2.346-.93 1.042-1.635 2.341-2.12 3.898-.486 1.555-.728 3.362-.728 5.417 0 1.913.242 3.615.728 5.107.485 1.492 1.206 2.752 2.162 3.78.957 1.028 2.146 1.813 3.564 2.356 1.421.541 3.06.813 4.916.813 1.484 0 2.766-.128 3.845-.385 1.076-.257 1.972-.6 2.687-1.028.712-.428 1.242-.925 1.584-1.488.342-.564.514-1.16.514-1.788 0-1-.393-1.713-1.178-2.142-.256.5-.583.967-.973 1.403a6.251 6.251 0 0 1-1.372 1.135 6.722 6.722 0 0 1-1.745.749 7.802 7.802 0 0 1-2.098.268c-.914 0-1.723-.165-2.431-.493-.706-.328-1.306-.835-1.798-1.52s-.878-1.556-1.156-2.612c-.28-1.057-.44-2.32-.483-3.791h14.37v-2.248c0-1.742-.236-3.27-.708-4.583-.47-1.313-1.15-2.413-2.034-3.297zm-11.542 7.323c.07-2.341.467-4.12 1.189-5.332.721-1.214 1.694-1.82 2.923-1.82.626 0 1.158.164 1.595.492.434.328.792.8 1.07 1.414.28.613.483 1.363.61 2.248.129.885.193 1.885.193 2.998h-7.58z"/></svg>